<svg width="1280px" height="1280px" viewBox="0 0 1280 1280" fill="none" xmlns="http://www.w3.org/2000/svg" transform="rotate(0) scale(1, 1)">
<path fill-rule="evenodd" clip-rule="evenodd" d="M639.998 413.818C515.09 413.818 413.816 515.076 413.816 640C413.816 764.908 515.09 866.166 639.998 866.166C709.427 866.166 771.536 834.871 813.023 785.631L984.259 929.759C901.713 1027.73 778.134 1090 639.998 1090C391.463 1090 190 888.521 190 640C190 391.465 391.463 190.002 639.998 190.002V413.818ZM1028.83 866.598L835.425 753.888C842.025 742.589 847.677 730.67 852.262 718.233L1062.33 795.659C1053.21 820.405 1041.96 844.117 1028.83 866.598ZM866.168 639.996H1090C1090 613.339 1087.67 587.229 1083.22 561.844L862.762 600.717C864.996 613.475 866.168 626.598 866.168 639.996ZM985.909 352.181L813.858 495.338C805.432 485.222 796.137 475.859 786.094 467.35L930.665 296.497C950.651 313.426 969.144 332.054 985.909 352.181Z" fill="#57677e"/>
</svg>