<?xml version="1.0" encoding="UTF-8" standalone="no"?>
<!-- Created with Inkscape (http://www.inkscape.org/) -->

<svg
   width="32"
   height="32"
   viewBox="0 0 32 32"
   version="1.1"
   id="svg1"
   inkscape:version="1.4.2 (ebf0e940, 2025-05-08)"
   sodipodi:docname="icon-master.inkscape.svg"
   inkscape:export-filename="icon.svg"
   inkscape:export-xdpi="96"
   inkscape:export-ydpi="96"
   xmlns:inkscape="http://www.inkscape.org/namespaces/inkscape"
   xmlns:sodipodi="http://sodipodi.sourceforge.net/DTD/sodipodi-0.dtd"
   xmlns:xlink="http://www.w3.org/1999/xlink"
   xmlns="http://www.w3.org/2000/svg"
   xmlns:svg="http://www.w3.org/2000/svg">
  <sodipodi:namedview
     id="namedview1"
     pagecolor="#ffffff"
     bordercolor="#000000"
     borderopacity="0.25"
     inkscape:showpageshadow="2"
     inkscape:pageopacity="0.0"
     inkscape:pagecheckerboard="0"
     inkscape:deskcolor="#d1d1d1"
     inkscape:document-units="px"
     inkscape:zoom="8.2128533"
     inkscape:cx="9.375548"
     inkscape:cy="17.533492"
     inkscape:window-width="1352"
     inkscape:window-height="815"
     inkscape:window-x="0"
     inkscape:window-y="35"
     inkscape:window-maximized="1"
     inkscape:current-layer="layer1">
    <inkscape:page
       x="0"
       y="0"
       width="32"
       height="32"
       id="page2"
       margin="0"
       bleed="0" />
  </sodipodi:namedview>
  <defs
     id="defs1">
    <linearGradient
       inkscape:collect="always"
       xlink:href="#linearGradient10"
       id="linearGradient11"
       x1="105.3578"
       y1="24.833624"
       x2="105.3578"
       y2="138.65465"
       gradientUnits="userSpaceOnUse"
       gradientTransform="matrix(0.28363511,0,0,0.28363514,-13.883171,-7.1855067)" />
    <linearGradient
       id="linearGradient10"
       inkscape:collect="always">
      <stop
         style="stop-color:#ffffff;stop-opacity:1;"
         offset="0"
         id="stop10" />
      <stop
         style="stop-color:#ffffff;stop-opacity:1;"
         offset="0.5"
         id="stop12" />
      <stop
         style="stop-color:#d8f1fd;stop-opacity:1;"
         offset="1"
         id="stop11" />
    </linearGradient>
  </defs>
  <g
     inkscape:label="Layer 1"
     inkscape:groupmode="layer"
     id="layer1">
    <path
       id="path2"
       style="fill:url(#linearGradient11);fill-opacity:1;stroke:none;stroke-width:0.283637;stroke-linecap:round;stroke-linejoin:round;stroke-opacity:1"
       d="M 15.999999,0 A 15.99998,15.999982 0 0 0 0,16 15.99998,15.999982 0 0 0 1.7830531,23.340065 C 8.210571,14.578799 18.832906,9.1191951 30.442815,9.1149025 A 15.99998,15.999982 0 0 0 15.999999,0 Z m 14.456447,10.088137 c -9.823415,0 -18.617291,7.374925 -22.2535172,19.883447 A 15.99998,15.999982 0 0 0 15.999999,32 15.99998,15.999982 0 0 0 32,16 15.99998,15.999982 0 0 0 30.869487,10.092394 c -0.13743,-0.0024 -0.275198,-0.0048 -0.413041,-0.0048 z" />
  </g>
</svg>
