<?xml version="1.0" encoding="UTF-8" standalone="no"?>
<!-- Created with Inkscape (http://www.inkscape.org/) -->

<svg
   width="32"
   height="32"
   viewBox="0 0 32 32"
   version="1.1"
   id="svg1"
   xmlns:xlink="http://www.w3.org/1999/xlink"
   xmlns="http://www.w3.org/2000/svg"
   xmlns:svg="http://www.w3.org/2000/svg">
  <defs
     id="defs1">
    <linearGradient
       xlink:href="#linearGradient12"
       id="linearGradient14"
       x1="100.57674"
       y1="282.98941"
       x2="100.57674"
       y2="169.1684"
       gradientUnits="userSpaceOnUse"
       gradientTransform="matrix(0.28363511,0,0,0.28363514,-12.527095,-48.123927)" />
    <linearGradient
       id="linearGradient12">
      <stop
         style="stop-color:#000000;stop-opacity:1;"
         offset="0"
         id="stop13" />
      <stop
         style="stop-color:#000000;stop-opacity:1;"
         offset="0.5"
         id="stop15" />
      <stop
         style="stop-color:#404040;stop-opacity:1;"
         offset="1"
         id="stop14" />
    </linearGradient>
  </defs>
  <g
     id="layer1">
    <path
       id="path0"
       style="fill:url(#linearGradient14);fill-opacity:1;stroke:none;stroke-width:0.283637;stroke-linecap:round;stroke-opacity:1"
       d="M 15.999999,0 A 15.99998,15.999982 0 0 0 0,15.999999 15.99998,15.999982 0 0 0 1.7830532,23.340065 C 8.2105712,14.578799 18.832906,9.1191951 30.442815,9.1149024 A 15.99998,15.999982 0 0 0 15.999999,0 Z m 14.456447,10.088137 c -9.823415,0 -18.617291,7.374925 -22.2535168,19.883447 A 15.99998,15.999982 0 0 0 15.999999,32 15.99998,15.999982 0 0 0 32,15.999999 15.99998,15.999982 0 0 0 30.869487,10.092394 c -0.13743,-0.0024 -0.275198,-0.0036 -0.413041,-0.0036 z" />
  </g>
</svg>
